# xmcd
#
# Track frame offsets:
#	150
#	20175
#	36600
#	54375
#	72750
#	93375
#	107252
#	120300
#	140025
#	154575
#	171375
#	187200
#	198600
#	213600
#	225825
#	238650
#	252750
#	262950
#
# Disc length: 3675 seconds
#
# Revision: 1
# Processed by: cddbd v1.5.2PL0 Copyright (c) Steve Scherf et al.
# Submitted via: CDmax 2.0
#
DISCID=020e5912
DTITLE=Various Artist - DKG 015
DYEAR=1900
DGENRE=Country
TTITLE0=Eric Clapton - I Shot The Sheriff
TTITLE1=J. Iglesias and E. Nelson - To All The Girls I've Loved Before
TTITLE2=Elton John - Daniel
TTITLE3=The Righteous Brothers - You've Lost That Lovin' Feeling
TTITLE4=Elvis Presley - Suspicious Mind
TTITLE5=B.J. Thomas - Raindrops Keep Falling On My Head
TTITLE6=Marther Reeve and The Vandellas - Jimmy Mack
TTITLE7=Bill Withers - Lean On Me
TTITLE8=The Happenings - I Got Rhythm
TTITLE9=Carpenters - Rainy Days And Mondays
TTITLE10=The Beatles - Revolution
TTITLE11=Little Richard - Lucille
TTITLE12=Engelbert Humperdinck - Release Me
TTITLE13=Shirley Ellis - The Name Game
TTITLE14=Miracles - Ooh Baby Baby
TTITLE15='Tennessee' Ernie Ford - Sixteen Tons
TTITLE16=Eddie Cochran - Sitting In The Balcony
TTITLE17=Crazy - Patsly Cline
EXTD=
EXTT0=
EXTT1=
EXTT2=
EXTT3=
EXTT4=
EXTT5=
EXTT6=
EXTT7=
EXTT8=
EXTT9=
EXTT10=
EXTT11=
EXTT12=
EXTT13=
EXTT14=
EXTT15=
EXTT16=
EXTT17=
PLAYORDER=
